<svg xmlns="http://www.w3.org/2000/svg" viewBox="0 0 1680 750" width="1680" height="750"><g transform="translate(60,70)">
    <circle r="46" fill="none" stroke="#ffffff" stroke-width="3"/>
    <circle r="36" fill="none" stroke="#ffffff" stroke-width="1.5"/>
    <path d="M0 -40 L34 -24 V8 C34 40 0 54 0 54 C0 54 -34 40 -34 8 V-24 Z" fill="none" stroke="#ffffff" stroke-width="2" opacity="0.5"/>
    <text x="0" y="9" text-anchor="middle" font-family="Arial Black, Arial, sans-serif" font-size="26" font-weight="900" fill="#ffffff">PSG</text>
  </g><g transform="translate(300,70)">
    <circle r="46" fill="none" stroke="#ffffff" stroke-width="3"/>
    <circle r="36" fill="none" stroke="#ffffff" stroke-width="1.5"/>
    <path d="M0 -40 L34 -24 V8 C34 40 0 54 0 54 C0 54 -34 40 -34 8 V-24 Z" fill="none" stroke="#ffffff" stroke-width="2" opacity="0.5"/>
    <text x="0" y="9" text-anchor="middle" font-family="Arial Black, Arial, sans-serif" font-size="26" font-weight="900" fill="#ffffff">RMA</text>
  </g><g transform="translate(540,70)">
    <circle r="46" fill="none" stroke="#ffffff" stroke-width="3"/>
    <circle r="36" fill="none" stroke="#ffffff" stroke-width="1.5"/>
    <path d="M0 -40 L34 -24 V8 C34 40 0 54 0 54 C0 54 -34 40 -34 8 V-24 Z" fill="none" stroke="#ffffff" stroke-width="2" opacity="0.5"/>
    <text x="0" y="9" text-anchor="middle" font-family="Arial Black, Arial, sans-serif" font-size="26" font-weight="900" fill="#ffffff">FCB</text>
  </g><g transform="translate(780,70)">
    <circle r="46" fill="none" stroke="#ffffff" stroke-width="3"/>
    <circle r="36" fill="none" stroke="#ffffff" stroke-width="1.5"/>
    <path d="M0 -40 L34 -24 V8 C34 40 0 54 0 54 C0 54 -34 40 -34 8 V-24 Z" fill="none" stroke="#ffffff" stroke-width="2" opacity="0.5"/>
    <text x="0" y="9" text-anchor="middle" font-family="Arial Black, Arial, sans-serif" font-size="26" font-weight="900" fill="#ffffff">MUN</text>
  </g><g transform="translate(1020,70)">
    <circle r="46" fill="none" stroke="#ffffff" stroke-width="3"/>
    <circle r="36" fill="none" stroke="#ffffff" stroke-width="1.5"/>
    <path d="M0 -40 L34 -24 V8 C34 40 0 54 0 54 C0 54 -34 40 -34 8 V-24 Z" fill="none" stroke="#ffffff" stroke-width="2" opacity="0.5"/>
    <text x="0" y="9" text-anchor="middle" font-family="Arial Black, Arial, sans-serif" font-size="26" font-weight="900" fill="#ffffff">MCI</text>
  </g><g transform="translate(1260,70)">
    <circle r="46" fill="none" stroke="#ffffff" stroke-width="3"/>
    <circle r="36" fill="none" stroke="#ffffff" stroke-width="1.5"/>
    <path d="M0 -40 L34 -24 V8 C34 40 0 54 0 54 C0 54 -34 40 -34 8 V-24 Z" fill="none" stroke="#ffffff" stroke-width="2" opacity="0.5"/>
    <text x="0" y="9" text-anchor="middle" font-family="Arial Black, Arial, sans-serif" font-size="26" font-weight="900" fill="#ffffff">LIV</text>
  </g><g transform="translate(1500,70)">
    <circle r="46" fill="none" stroke="#ffffff" stroke-width="3"/>
    <circle r="36" fill="none" stroke="#ffffff" stroke-width="1.5"/>
    <path d="M0 -40 L34 -24 V8 C34 40 0 54 0 54 C0 54 -34 40 -34 8 V-24 Z" fill="none" stroke="#ffffff" stroke-width="2" opacity="0.5"/>
    <text x="0" y="9" text-anchor="middle" font-family="Arial Black, Arial, sans-serif" font-size="26" font-weight="900" fill="#ffffff">ARS</text>
  </g><g transform="translate(180,220)">
    <circle r="46" fill="none" stroke="#ffffff" stroke-width="3"/>
    <circle r="36" fill="none" stroke="#ffffff" stroke-width="1.5"/>
    <path d="M0 -40 L34 -24 V8 C34 40 0 54 0 54 C0 54 -34 40 -34 8 V-24 Z" fill="none" stroke="#ffffff" stroke-width="2" opacity="0.5"/>
    <text x="0" y="9" text-anchor="middle" font-family="Arial Black, Arial, sans-serif" font-size="26" font-weight="900" fill="#ffffff">CHE</text>
  </g><g transform="translate(420,220)">
    <circle r="46" fill="none" stroke="#ffffff" stroke-width="3"/>
    <circle r="36" fill="none" stroke="#ffffff" stroke-width="1.5"/>
    <path d="M0 -40 L34 -24 V8 C34 40 0 54 0 54 C0 54 -34 40 -34 8 V-24 Z" fill="none" stroke="#ffffff" stroke-width="2" opacity="0.5"/>
    <text x="0" y="9" text-anchor="middle" font-family="Arial Black, Arial, sans-serif" font-size="26" font-weight="900" fill="#ffffff">TOT</text>
  </g><g transform="translate(660,220)">
    <circle r="46" fill="none" stroke="#ffffff" stroke-width="3"/>
    <circle r="36" fill="none" stroke="#ffffff" stroke-width="1.5"/>
    <path d="M0 -40 L34 -24 V8 C34 40 0 54 0 54 C0 54 -34 40 -34 8 V-24 Z" fill="none" stroke="#ffffff" stroke-width="2" opacity="0.5"/>
    <text x="0" y="9" text-anchor="middle" font-family="Arial Black, Arial, sans-serif" font-size="26" font-weight="900" fill="#ffffff">JUV</text>
  </g><g transform="translate(900,220)">
    <circle r="46" fill="none" stroke="#ffffff" stroke-width="3"/>
    <circle r="36" fill="none" stroke="#ffffff" stroke-width="1.5"/>
    <path d="M0 -40 L34 -24 V8 C34 40 0 54 0 54 C0 54 -34 40 -34 8 V-24 Z" fill="none" stroke="#ffffff" stroke-width="2" opacity="0.5"/>
    <text x="0" y="9" text-anchor="middle" font-family="Arial Black, Arial, sans-serif" font-size="26" font-weight="900" fill="#ffffff">MIL</text>
  </g><g transform="translate(1140,220)">
    <circle r="46" fill="none" stroke="#ffffff" stroke-width="3"/>
    <circle r="36" fill="none" stroke="#ffffff" stroke-width="1.5"/>
    <path d="M0 -40 L34 -24 V8 C34 40 0 54 0 54 C0 54 -34 40 -34 8 V-24 Z" fill="none" stroke="#ffffff" stroke-width="2" opacity="0.5"/>
    <text x="0" y="9" text-anchor="middle" font-family="Arial Black, Arial, sans-serif" font-size="26" font-weight="900" fill="#ffffff">INT</text>
  </g><g transform="translate(1380,220)">
    <circle r="46" fill="none" stroke="#ffffff" stroke-width="3"/>
    <circle r="36" fill="none" stroke="#ffffff" stroke-width="1.5"/>
    <path d="M0 -40 L34 -24 V8 C34 40 0 54 0 54 C0 54 -34 40 -34 8 V-24 Z" fill="none" stroke="#ffffff" stroke-width="2" opacity="0.5"/>
    <text x="0" y="9" text-anchor="middle" font-family="Arial Black, Arial, sans-serif" font-size="26" font-weight="900" fill="#ffffff">NAP</text>
  </g><g transform="translate(1620,220)">
    <circle r="46" fill="none" stroke="#ffffff" stroke-width="3"/>
    <circle r="36" fill="none" stroke="#ffffff" stroke-width="1.5"/>
    <path d="M0 -40 L34 -24 V8 C34 40 0 54 0 54 C0 54 -34 40 -34 8 V-24 Z" fill="none" stroke="#ffffff" stroke-width="2" opacity="0.5"/>
    <text x="0" y="9" text-anchor="middle" font-family="Arial Black, Arial, sans-serif" font-size="26" font-weight="900" fill="#ffffff">ROM</text>
  </g><g transform="translate(60,370)">
    <circle r="46" fill="none" stroke="#ffffff" stroke-width="3"/>
    <circle r="36" fill="none" stroke="#ffffff" stroke-width="1.5"/>
    <path d="M0 -40 L34 -24 V8 C34 40 0 54 0 54 C0 54 -34 40 -34 8 V-24 Z" fill="none" stroke="#ffffff" stroke-width="2" opacity="0.5"/>
    <text x="0" y="9" text-anchor="middle" font-family="Arial Black, Arial, sans-serif" font-size="26" font-weight="900" fill="#ffffff">BAY</text>
  </g><g transform="translate(300,370)">
    <circle r="46" fill="none" stroke="#ffffff" stroke-width="3"/>
    <circle r="36" fill="none" stroke="#ffffff" stroke-width="1.5"/>
    <path d="M0 -40 L34 -24 V8 C34 40 0 54 0 54 C0 54 -34 40 -34 8 V-24 Z" fill="none" stroke="#ffffff" stroke-width="2" opacity="0.5"/>
    <text x="0" y="9" text-anchor="middle" font-family="Arial Black, Arial, sans-serif" font-size="26" font-weight="900" fill="#ffffff">BVB</text>
  </g><g transform="translate(540,370)">
    <circle r="46" fill="none" stroke="#ffffff" stroke-width="3"/>
    <circle r="36" fill="none" stroke="#ffffff" stroke-width="1.5"/>
    <path d="M0 -40 L34 -24 V8 C34 40 0 54 0 54 C0 54 -34 40 -34 8 V-24 Z" fill="none" stroke="#ffffff" stroke-width="2" opacity="0.5"/>
    <text x="0" y="9" text-anchor="middle" font-family="Arial Black, Arial, sans-serif" font-size="26" font-weight="900" fill="#ffffff">AJA</text>
  </g><g transform="translate(780,370)">
    <circle r="46" fill="none" stroke="#ffffff" stroke-width="3"/>
    <circle r="36" fill="none" stroke="#ffffff" stroke-width="1.5"/>
    <path d="M0 -40 L34 -24 V8 C34 40 0 54 0 54 C0 54 -34 40 -34 8 V-24 Z" fill="none" stroke="#ffffff" stroke-width="2" opacity="0.5"/>
    <text x="0" y="9" text-anchor="middle" font-family="Arial Black, Arial, sans-serif" font-size="26" font-weight="900" fill="#ffffff">OM</text>
  </g><g transform="translate(1020,370)">
    <circle r="46" fill="none" stroke="#ffffff" stroke-width="3"/>
    <circle r="36" fill="none" stroke="#ffffff" stroke-width="1.5"/>
    <path d="M0 -40 L34 -24 V8 C34 40 0 54 0 54 C0 54 -34 40 -34 8 V-24 Z" fill="none" stroke="#ffffff" stroke-width="2" opacity="0.5"/>
    <text x="0" y="9" text-anchor="middle" font-family="Arial Black, Arial, sans-serif" font-size="26" font-weight="900" fill="#ffffff">ATM</text>
  </g><g transform="translate(1260,370)">
    <circle r="46" fill="none" stroke="#ffffff" stroke-width="3"/>
    <circle r="36" fill="none" stroke="#ffffff" stroke-width="1.5"/>
    <path d="M0 -40 L34 -24 V8 C34 40 0 54 0 54 C0 54 -34 40 -34 8 V-24 Z" fill="none" stroke="#ffffff" stroke-width="2" opacity="0.5"/>
    <text x="0" y="9" text-anchor="middle" font-family="Arial Black, Arial, sans-serif" font-size="26" font-weight="900" fill="#ffffff">SEV</text>
  </g><g transform="translate(1500,370)">
    <circle r="46" fill="none" stroke="#ffffff" stroke-width="3"/>
    <circle r="36" fill="none" stroke="#ffffff" stroke-width="1.5"/>
    <path d="M0 -40 L34 -24 V8 C34 40 0 54 0 54 C0 54 -34 40 -34 8 V-24 Z" fill="none" stroke="#ffffff" stroke-width="2" opacity="0.5"/>
    <text x="0" y="9" text-anchor="middle" font-family="Arial Black, Arial, sans-serif" font-size="26" font-weight="900" fill="#ffffff">BRA</text>
  </g><g transform="translate(180,520)">
    <circle r="46" fill="none" stroke="#ffffff" stroke-width="3"/>
    <circle r="36" fill="none" stroke="#ffffff" stroke-width="1.5"/>
    <path d="M0 -40 L34 -24 V8 C34 40 0 54 0 54 C0 54 -34 40 -34 8 V-24 Z" fill="none" stroke="#ffffff" stroke-width="2" opacity="0.5"/>
    <text x="0" y="9" text-anchor="middle" font-family="Arial Black, Arial, sans-serif" font-size="26" font-weight="900" fill="#ffffff">ARG</text>
  </g><g transform="translate(420,520)">
    <circle r="46" fill="none" stroke="#ffffff" stroke-width="3"/>
    <circle r="36" fill="none" stroke="#ffffff" stroke-width="1.5"/>
    <path d="M0 -40 L34 -24 V8 C34 40 0 54 0 54 C0 54 -34 40 -34 8 V-24 Z" fill="none" stroke="#ffffff" stroke-width="2" opacity="0.5"/>
    <text x="0" y="9" text-anchor="middle" font-family="Arial Black, Arial, sans-serif" font-size="26" font-weight="900" fill="#ffffff">FRA</text>
  </g><g transform="translate(660,520)">
    <circle r="46" fill="none" stroke="#ffffff" stroke-width="3"/>
    <circle r="36" fill="none" stroke="#ffffff" stroke-width="1.5"/>
    <path d="M0 -40 L34 -24 V8 C34 40 0 54 0 54 C0 54 -34 40 -34 8 V-24 Z" fill="none" stroke="#ffffff" stroke-width="2" opacity="0.5"/>
    <text x="0" y="9" text-anchor="middle" font-family="Arial Black, Arial, sans-serif" font-size="26" font-weight="900" fill="#ffffff">ENG</text>
  </g><g transform="translate(900,520)">
    <circle r="46" fill="none" stroke="#ffffff" stroke-width="3"/>
    <circle r="36" fill="none" stroke="#ffffff" stroke-width="1.5"/>
    <path d="M0 -40 L34 -24 V8 C34 40 0 54 0 54 C0 54 -34 40 -34 8 V-24 Z" fill="none" stroke="#ffffff" stroke-width="2" opacity="0.5"/>
    <text x="0" y="9" text-anchor="middle" font-family="Arial Black, Arial, sans-serif" font-size="26" font-weight="900" fill="#ffffff">ESP</text>
  </g><g transform="translate(1140,520)">
    <circle r="46" fill="none" stroke="#ffffff" stroke-width="3"/>
    <circle r="36" fill="none" stroke="#ffffff" stroke-width="1.5"/>
    <path d="M0 -40 L34 -24 V8 C34 40 0 54 0 54 C0 54 -34 40 -34 8 V-24 Z" fill="none" stroke="#ffffff" stroke-width="2" opacity="0.5"/>
    <text x="0" y="9" text-anchor="middle" font-family="Arial Black, Arial, sans-serif" font-size="26" font-weight="900" fill="#ffffff">GER</text>
  </g><g transform="translate(1380,520)">
    <circle r="46" fill="none" stroke="#ffffff" stroke-width="3"/>
    <circle r="36" fill="none" stroke="#ffffff" stroke-width="1.5"/>
    <path d="M0 -40 L34 -24 V8 C34 40 0 54 0 54 C0 54 -34 40 -34 8 V-24 Z" fill="none" stroke="#ffffff" stroke-width="2" opacity="0.5"/>
    <text x="0" y="9" text-anchor="middle" font-family="Arial Black, Arial, sans-serif" font-size="26" font-weight="900" fill="#ffffff">POR</text>
  </g><g transform="translate(1620,520)">
    <circle r="46" fill="none" stroke="#ffffff" stroke-width="3"/>
    <circle r="36" fill="none" stroke="#ffffff" stroke-width="1.5"/>
    <path d="M0 -40 L34 -24 V8 C34 40 0 54 0 54 C0 54 -34 40 -34 8 V-24 Z" fill="none" stroke="#ffffff" stroke-width="2" opacity="0.5"/>
    <text x="0" y="9" text-anchor="middle" font-family="Arial Black, Arial, sans-serif" font-size="26" font-weight="900" fill="#ffffff">NED</text>
  </g><g transform="translate(60,670)">
    <circle r="46" fill="none" stroke="#ffffff" stroke-width="3"/>
    <circle r="36" fill="none" stroke="#ffffff" stroke-width="1.5"/>
    <path d="M0 -40 L34 -24 V8 C34 40 0 54 0 54 C0 54 -34 40 -34 8 V-24 Z" fill="none" stroke="#ffffff" stroke-width="2" opacity="0.5"/>
    <text x="0" y="9" text-anchor="middle" font-family="Arial Black, Arial, sans-serif" font-size="26" font-weight="900" fill="#ffffff">ITA</text>
  </g><g transform="translate(300,670)">
    <circle r="46" fill="none" stroke="#ffffff" stroke-width="3"/>
    <circle r="36" fill="none" stroke="#ffffff" stroke-width="1.5"/>
    <path d="M0 -40 L34 -24 V8 C34 40 0 54 0 54 C0 54 -34 40 -34 8 V-24 Z" fill="none" stroke="#ffffff" stroke-width="2" opacity="0.5"/>
    <text x="0" y="9" text-anchor="middle" font-family="Arial Black, Arial, sans-serif" font-size="26" font-weight="900" fill="#ffffff">USA</text>
  </g><g transform="translate(540,670)">
    <circle r="46" fill="none" stroke="#ffffff" stroke-width="3"/>
    <circle r="36" fill="none" stroke="#ffffff" stroke-width="1.5"/>
    <path d="M0 -40 L34 -24 V8 C34 40 0 54 0 54 C0 54 -34 40 -34 8 V-24 Z" fill="none" stroke="#ffffff" stroke-width="2" opacity="0.5"/>
    <text x="0" y="9" text-anchor="middle" font-family="Arial Black, Arial, sans-serif" font-size="26" font-weight="900" fill="#ffffff">MEX</text>
  </g><g transform="translate(780,670)">
    <circle r="46" fill="none" stroke="#ffffff" stroke-width="3"/>
    <circle r="36" fill="none" stroke="#ffffff" stroke-width="1.5"/>
    <path d="M0 -40 L34 -24 V8 C34 40 0 54 0 54 C0 54 -34 40 -34 8 V-24 Z" fill="none" stroke="#ffffff" stroke-width="2" opacity="0.5"/>
    <text x="0" y="9" text-anchor="middle" font-family="Arial Black, Arial, sans-serif" font-size="26" font-weight="900" fill="#ffffff">JPN</text>
  </g><g transform="translate(1020,670)">
    <circle r="46" fill="none" stroke="#ffffff" stroke-width="3"/>
    <circle r="36" fill="none" stroke="#ffffff" stroke-width="1.5"/>
    <path d="M0 -40 L34 -24 V8 C34 40 0 54 0 54 C0 54 -34 40 -34 8 V-24 Z" fill="none" stroke="#ffffff" stroke-width="2" opacity="0.5"/>
    <text x="0" y="9" text-anchor="middle" font-family="Arial Black, Arial, sans-serif" font-size="26" font-weight="900" fill="#ffffff">MAR</text>
  </g><g transform="translate(1260,670)">
    <circle r="46" fill="none" stroke="#ffffff" stroke-width="3"/>
    <circle r="36" fill="none" stroke="#ffffff" stroke-width="1.5"/>
    <path d="M0 -40 L34 -24 V8 C34 40 0 54 0 54 C0 54 -34 40 -34 8 V-24 Z" fill="none" stroke="#ffffff" stroke-width="2" opacity="0.5"/>
    <text x="0" y="9" text-anchor="middle" font-family="Arial Black, Arial, sans-serif" font-size="26" font-weight="900" fill="#ffffff">BEL</text>
  </g><g transform="translate(1500,670)">
    <circle r="46" fill="none" stroke="#ffffff" stroke-width="3"/>
    <circle r="36" fill="none" stroke="#ffffff" stroke-width="1.5"/>
    <path d="M0 -40 L34 -24 V8 C34 40 0 54 0 54 C0 54 -34 40 -34 8 V-24 Z" fill="none" stroke="#ffffff" stroke-width="2" opacity="0.5"/>
    <text x="0" y="9" text-anchor="middle" font-family="Arial Black, Arial, sans-serif" font-size="26" font-weight="900" fill="#ffffff">CRO</text>
  </g></svg>